/vscmnt/brussel_pixiu_data/_data_brussel/112/vsc11236/PredSimResults/SUBJ06mtu3D/worker9.mot
version=1
nRows=4
nColumns=50
inDegrees=yes
endheader
                time	         pelvis_tilt	         pelvis_list	     pelvis_rotation	           pelvis_tx	           pelvis_ty	           pelvis_tz	       hip_flexion_r	     hip_adduction_r	      hip_rotation_r	        knee_angle_r	       ankle_angle_r	         mtp_angle_r	       hip_flexion_l	     hip_adduction_l	      hip_rotation_l	        knee_angle_l	       ankle_angle_l	         mtp_angle_l	    lumbar_extension	      lumbar_bending	     lumbar_rotation	 ercspn_r/activation	 intobl_r/activation	 extobl_r/activation	    abd_r/activation	    add_r/activation	hamstrings_r/activation	bifemsh_r/activation	glut_max_r/activation	iliopsoas_r/activation	rect_fem_r/activation	  vasti_r/activation	gastroc_r/activation	 soleus_r/activation	tib_ant_r/activation	 ercspn_l/activation	 intobl_l/activation	 extobl_l/activation	    abd_l/activation	    add_l/activation	hamstrings_l/activation	bifemsh_l/activation	glut_max_l/activation	iliopsoas_l/activation	rect_fem_l/activation	  vasti_l/activation	gastroc_l/activation	 soleus_l/activation	tib_ant_l/activation	
          1.85036337	         -7.92224998	          9.07853462	         -0.06997614	          2.07240697	          0.96711216	         -0.02902501	        -14.41710821	        -11.23446711	        -19.68513315	         -3.31469218	        -26.53007882	         60.15063854	         35.15587848	          8.63023490	          8.66667968	        -11.98450214	        -31.76585002	          0.69394594	         -9.42018113	         -1.03345818	         -4.78659712	          0.09691780	          0.11631364	          0.08463075	          0.05163733	          0.12635998	          0.13738635	          0.66307065	          0.08608006	          0.48508313	          0.22387348	          0.06756060	          0.55832085	          0.16960159	          0.80333334	          0.24051889	          0.82869440	          0.21391433	          0.06024855	          0.15310590	          0.14069958	          0.74977781	          0.01000028	          0.74702097	          0.27309960	          0.02076154	          0.54817746	          0.04839578	          0.95560328	
          1.86269912	         -8.38963539	          8.66165159	          0.06974608	          2.08896616	          0.96189651	         -0.02825417	        -14.70290270	        -10.66874407	        -20.70981038	         -3.78480434	        -26.55080770	         60.16045007	         36.26985427	          8.60395948	          7.62758511	        -15.63176579	        -29.80655779	          2.93139325	         -8.85205597	         -1.52775067	         -4.46243120	          0.11495259	          0.09647827	          0.15405375	          0.04283141	          0.10481138	          0.13084449	          0.63730195	          0.07140050	          0.50547268	          0.19894158	          0.07206378	          0.54888526	          0.14926921	          0.81123780	          0.21161867	          0.84874008	          0.17812317	          0.06143006	          0.12699612	          0.19111234	          0.72863879	          0.01000038	          0.62663883	          0.22652685	          0.01722100	          0.54956788	          0.06172689	          0.82144576	
          1.87503488	         -8.92316393	          8.26141443	          0.26038665	          2.10534185	          0.95669962	         -0.02746292	        -14.73439718	        -10.18988116	        -21.65729048	         -4.59922411	        -26.57364470	         60.16032832	         37.33030078	          8.46065885	          6.51318648	        -19.08811042	        -27.95984997	          7.35922563	         -8.28014466	         -2.08398303	         -4.08671038	          0.14882486	          0.08002551	          0.15647154	          0.03552721	          0.08693747	          0.12990048	          0.60639316	          0.05922430	          0.49047960	          0.17345215	          0.07345194	          0.55279316	          0.13003142	          0.81612991	          0.18246613	          0.82165837	          0.14910973	          0.06297778	          0.10533898	          0.25795755	          0.71997223	          0.05433804	          0.51977538	          0.18789637	          0.01428425	          0.55213899	          0.05445651	          0.73705370	
          1.88737063	         -9.51414304	          7.92595061	          0.51628258	          2.12124701	          0.95189272	         -0.02681210	        -14.42660773	         -9.89364622	        -22.53472051	         -5.89339798	        -26.66182850	         60.15871511	         38.31644597	          8.34999720	          5.78359639	        -22.17749520	        -26.47221944	         12.93922223	         -7.75286975	         -2.72796307	         -3.67404001	          0.19686439	          0.06637857	          0.12978796	          0.02946862	          0.07211169	          0.12136465	          0.56955324	          0.04912455	          0.48879103	          0.15415652	          0.07758876	          0.55110840	          0.11260591	          0.81943676	          0.17800598	          0.73543233	          0.12368200	          0.07529745	          0.09174936	          0.28995793	          0.71826456	          0.16066982	          0.43113585	          0.15585375	          0.01184834	          0.55307651	          0.04573370	          0.69526917	
